<svg xmlns="http://www.w3.org/2000/svg" viewBox="0 0 410 404" width="410" height="404" fill="none">
  <path d="M399.64 59.525L213.256 392.44c-4.47 7.96-15.9 7.95-20.36-.02L10.56 59.52c-4.93-8.8 2.64-19.2 12.62-17.35l181.92 33.58c2.44.45 4.94.45 7.38 0l181.92-33.58c9.98-1.84 17.55 8.55 12.62 17.35Z" fill="#646CFF"/>
  <path d="M292.97 8.62 155.59 35.51c-2.25.44-4.16 1.94-5.25 4.03l-37.07 71.48c-1.16 2.24-1.18 4.89-.05 7.14l25.7 51.1c1.23 2.45 3.61 4.05 6.33 4.25l78.63 5.91c2.73.2 5.3-1.02 6.79-3.24l66.47-98.92c1.48-2.2 1.68-5.0.52-7.37l-27.3-56.0c-1.49-3.05-4.87-4.78-8.19-4.12Z" fill="#747BFF"/>
  <path d="M226.2 269.83c-1.49 2.22-4.06 3.45-6.79 3.24l-78.63-5.91c-2.72-.2-5.1-1.8-6.33-4.25l-25.7-51.1c-1.13-2.25-1.11-4.9.05-7.14l37.07-71.48c1.09-2.1 3-3.59 5.25-4.03l137.38-26.89c3.32-.65 6.7 1.07 8.19 4.12l27.3 56c1.16 2.37.96 5.17-.52 7.37L226.2 269.83Z" fill="#FFF" fill-opacity="0.2"/>
</svg>
